<svg xmlns="http://www.w3.org/2000/svg" width="24" height="24" viewBox="0 0 24 24"><polygon points="2.5,15 12.0,19.18 12.0,24.18 2.5,20" fill="#EAC364" stroke="#4D4D4D" stroke-width="0.9" stroke-linejoin="round"/><polygon points="12.0,19.18 21.5,15 21.5,20 12.0,24.18" fill="#C99A38" stroke="#4D4D4D" stroke-width="0.9" stroke-linejoin="round"/><polygon points="2.5,15 12.0,10.82 21.5,15 12.0,19.18" fill="#F7DE95" stroke="#4D4D4D" stroke-width="0.9" stroke-linejoin="round"/><ellipse cx="12" cy="15" rx="5" ry="2.2" fill="#3A2D10" stroke="#4D4D4D" stroke-width="0.9" stroke-linejoin="round"/><path d="M8 15 a4 1.7 0 1 0 8 0 a4 1.7 0 1 0 -8 0" fill="none" stroke="#2C7BE5" stroke-width="1.1" stroke-linecap="round" stroke-linejoin="round" /><rect x="12.9" y="1" width="2.2" height="4.95" fill="#C9CED6" stroke="#4D4D4D" stroke-width="0.9" stroke-linejoin="round"/><rect x="12.9" y="5.95" width="2.2" height="6.05" fill="#8A8F98" stroke="#4D4D4D" stroke-width="0.9" stroke-linejoin="round"/><line x1="12.9" y1="8.15" x2="15.1" y2="6.75" stroke="#4D4D4D" stroke-width="0.6"/><line x1="12.9" y1="10.15" x2="15.1" y2="8.75" stroke="#4D4D4D" stroke-width="0.6"/></svg>