<svg xmlns="http://www.w3.org/2000/svg" width="24" height="24" viewBox="0 0 24 24"><polygon points="1.8,12 5,13.5 5,17.5 1.8,16" fill="#EAC364" stroke="#4D4D4D" stroke-width="0.9" stroke-linejoin="round"/><polygon points="5,13.5 8.2,12 8.2,16 5,17.5" fill="#C99A38" stroke="#4D4D4D" stroke-width="0.9" stroke-linejoin="round"/><polygon points="1.8,12 5,10.5 8.2,12 5,13.5" fill="#F7DE95" stroke="#4D4D4D" stroke-width="0.9" stroke-linejoin="round"/><polygon points="8.8,12 12,13.5 12,17.5 8.8,16" fill="#F3DEAA" stroke="#4D4D4D" stroke-width="0.9" stroke-linejoin="round"/><polygon points="12,13.5 15.2,12 15.2,16 12,17.5" fill="#E0C88E" stroke="#4D4D4D" stroke-width="0.9" stroke-linejoin="round"/><polygon points="8.8,12 12,10.5 15.2,12 12,13.5" fill="#FBEFC9" stroke="#4D4D4D" stroke-width="0.9" stroke-linejoin="round"/><polygon points="15.8,12 19,13.5 19,17.5 15.8,16" fill="#F3DEAA" stroke="#4D4D4D" stroke-width="0.9" stroke-linejoin="round"/><polygon points="19,13.5 22.2,12 22.2,16 19,17.5" fill="#E0C88E" stroke="#4D4D4D" stroke-width="0.9" stroke-linejoin="round"/><polygon points="15.8,12 19,10.5 22.2,12 19,13.5" fill="#FBEFC9" stroke="#4D4D4D" stroke-width="0.9" stroke-linejoin="round"/><line x1="3" y1="5" x2="19" y2="5" stroke="#1E63C8" stroke-width="1.4" stroke-linecap="round" /><polygon points="18,2.5 21.5,5 18,7.5" fill="#1E63C8" stroke="none"/></svg>
